<?xml version="1.0" encoding="UTF-8"?><svg id="a" xmlns="http://www.w3.org/2000/svg" viewBox="0 0 283.465 93.612"><defs><style>.b{fill:#fff;}</style></defs><path class="b" d="M37.258,32.768c0-.12-.217-.628-.642-1.513-.43-.889-.642-2.465-.642-4.729,0-6.914,1.516-11.732,4.546-14.459,3.029-2.723,7.265-4.082,12.711-4.082h1.102l-13.036,60.767h13.219l12.67-58.933c3.608.736,6.395,1.255,8.352,1.561s3.918.459,5.875.459c3.731,0,6.548-.949,8.445-2.846s2.906-4.833,3.029-8.811c-3.182,1.285-6.731,1.927-10.649,1.927-3.059,0-6.548-.336-10.462-1.012-4.654-.732-8.998-1.098-13.036-1.098-7.224,0-13.174,1.098-17.854,3.302-4.684,2.204-8.094,5.095-10.234,8.677-2.144,3.578-3.216,7.541-3.216,11.885,0,3.182.811,5.464,2.435,6.839,1.621,1.378,4.082,2.066,7.388,2.066Z"/><path class="b" d="M78.289,27.584c-3.795,3.702-6.548,8.094-8.262,13.17-1.711,5.08-2.57,9.704-2.57,13.865,0,5.013,1.315,8.688,3.948,11.011,2.63,2.331,6.208,3.489,10.738,3.489,3.731,0,7.19-1.128,10.372-3.399,3.182-2.256,5.782-5.476,7.803-9.637s3.272-9.024,3.765-14.593c1.4-.23,2.728-.565,4.038-.927-.023.068-.067.123-.09.191-1.711,5.08-2.57,9.704-2.57,13.865,0,5.013,1.315,8.688,3.948,11.011,2.63,2.331,6.208,3.489,10.738,3.489,3.731,0,7.19-1.128,10.372-3.399,3.182-2.256,5.782-5.476,7.803-9.637s3.272-9.024,3.765-14.593c1.419-.233,2.766-.571,4.092-.939-1.734,4.878-2.624,9.537-2.624,13.971,0,5.08,1.162,8.815,3.485,11.198,2.327,2.39,5.233,3.586,8.722,3.586,2.999,0,5.614-.799,7.848-2.39s4.146-3.608,5.737-6.058c.37,2.57,1.333,4.534,2.895,5.879,1.558,1.345,3.593,2.017,6.103,2.017,5.149,0,9.408-2.018,12.812-5.976.587,1.084,1.267,2.073,2.151,2.854,2.63,2.331,6.208,3.489,10.738,3.489,3.731,0,7.19-1.128,10.372-3.399,3.182-2.256,5.782-5.476,7.803-9.637s3.272-9.024,3.765-14.593c1.354-.222,2.635-.551,3.904-.896-.014.041-.04.074-.053.115-1.651,5.05-2.476,9.689-2.476,13.91,0,5.013,1.315,8.688,3.948,11.011,2.63,2.331,6.208,3.489,10.738,3.489,3.855,0,7.373-1.173,10.555-3.533,3.182-2.353,5.767-5.707,7.758-10.048,1.987-4.348,3.167-9.398,3.533-15.15,2.08-1.162,3.765-2.678,5.05-4.542,1.285-1.868,2.753-4.452,4.407-7.758h-2.94c-.919,1.531-1.897,2.891-2.936,4.082-1.042,1.195-2.237,1.946-3.582,2.252-.549-8.262-4.437-12.393-11.657-12.393-5.816,0-10.589,1.853-14.32,5.554-2.494,2.474-4.35,5.361-5.916,8.438-1.708.521-3.321.878-4.729.878-.493,0-.825-.03-1.012-.09v-.093c0-9.79-3.914-14.687-11.747-14.687-5.752,0-10.526,1.853-14.32,5.554s-6.548,8.094-8.262,13.17c-1.711,5.08-2.57,9.704-2.57,13.865,0,1.375.12,2.629.319,3.802-1.199,1.273-2.579,1.98-4.174,1.98-1.348,0-2.312-.261-2.891-.784-.583-.515-.874-1.389-.874-2.615,0-1.038.123-2.017.366-2.936l10.559-49.569-13.588,1.834-4.497,21.115v-.37c0-1.404-.613-2.536-1.834-3.395-1.225-.855-3.093-1.285-5.599-1.285-4.96,0-9.226,1.729-12.808,5.188-2.461,2.376-4.346,5.249-5.968,8.35-1.813.577-3.518.965-4.998.965-.493,0-.825-.03-1.012-.09v-.093c0-9.79-3.914-14.687-11.747-14.687-5.752,0-10.526,1.853-14.32,5.554-2.513,2.451-4.399,5.318-5.999,8.374-1.785.562-3.466.942-4.927.942-.493,0-.825-.03-1.012-.09v-.093c0-9.79-3.914-14.687-11.747-14.687-5.752,0-10.526,1.853-14.32,5.554ZM247.188,31.988c1.838-2.906,3.765-4.359,5.786-4.359,1.162,0,2.002.381,2.521,1.147s.844,2.129.967,4.086c-1.714.796-2.574,2.387-2.574,4.773,0,2.204.736,3.578,2.204,4.131-.732,5.386-2.08,9.917-4.038,13.585-1.961,3.668-4.071,5.506-6.335,5.506-1.774,0-2.999-.501-3.672-1.516-.672-1.008-1.008-2.981-1.008-5.916,0-3.123.564-6.749,1.696-10.877,1.132-4.131,2.618-7.65,4.452-10.559ZM204.783,42.592c1.162-4.101,2.689-7.62,4.59-10.555,1.894-2.94,3.855-4.407,5.872-4.407,1.225,0,2.08.381,2.57,1.147s.796,2.159.919,4.176c-1.897.796-2.846,2.45-2.846,4.957,0,2.204.829,3.489,2.48,3.858-.489,3.548-1.285,6.776-2.387,9.678-1.102,2.913-2.387,5.207-3.855,6.888-1.468,1.688-2.94,2.525-4.407,2.525-1.774,0-2.999-.501-3.672-1.516-.672-1.008-1.008-2.981-1.008-5.916,0-3.123.579-6.731,1.744-10.832ZM163.382,32.357c1.957-2.846,4.161-4.269,6.607-4.269,1.961,0,3.216,1.072,3.765,3.212l-4.497,21.025v.456c-.553,2.383-1.576,4.251-3.078,5.595-1.498,1.352-2.981,2.024-4.449,2.024-1.289,0-2.376-.426-3.261-1.285-.889-.859-1.33-2.816-1.33-5.879s.549-6.593,1.651-10.6,2.63-7.437,4.59-10.279ZM125.475,32.036c1.894-2.94,3.855-4.407,5.872-4.407,1.225,0,2.08.381,2.57,1.147s.796,2.159.919,4.176c-1.897.796-2.846,2.45-2.846,4.957,0,2.204.829,3.489,2.48,3.858-.489,3.548-1.285,6.776-2.387,9.678-1.102,2.913-2.387,5.207-3.855,6.888-1.468,1.688-2.94,2.525-4.407,2.525-1.774,0-2.999-.501-3.672-1.516-.672-1.008-1.008-2.981-1.008-5.916,0-3.123.579-6.731,1.744-10.832,1.162-4.101,2.689-7.62,4.59-10.555ZM95.911,28.775c.489.766.796,2.159.919,4.176-1.897.796-2.846,2.45-2.846,4.957,0,2.204.829,3.489,2.48,3.858-.489,3.548-1.285,6.776-2.387,9.678-1.102,2.913-2.387,5.207-3.855,6.888-1.468,1.688-2.94,2.525-4.407,2.525-1.774,0-2.999-.501-3.672-1.516-.672-1.008-1.008-2.981-1.008-5.916,0-3.123.579-6.731,1.744-10.832,1.162-4.101,2.689-7.62,4.59-10.555,1.894-2.94,3.855-4.407,5.872-4.407,1.225,0,2.08.381,2.57,1.147Z"/><path class="b" d="M281.819,65.419c1.818,1.83,1.296,4.531-.654,5.861-2.964,2.398-6.914,3.431-10.614,4.343-18.631,3.826-37.892,3.947-56.874,4.577-51.194,1.216-102.299-1.149-153.55.772-19.46,1.108-38.841.894-57.954,5.802-.828.444-2.284,1.02-2.165,2.374.018.377.148.763.301,1.038,0,0,.385.365.384.366,5.267,2.897,11.371,2.408,17.153,3.062-4.415-1.198-9.302-2.111-13.483-4.005,69.421-3.081,140.046,5.794,209.78-.959,22.147-2.597,46.332-3.345,66.082-14.779,2.874-1.656,4.764-6.226,1.595-8.451Z"/></svg>